# xmcd
#
# Track frame offsets:
#	150
#	20350
#	32995
#	48577
#	64792
#	77240
#	89985
#	106502
#	120722
#	136655
#	148887
#	163852
#
# Disc length: 2338 seconds
#
# Revision: 0
# Processed by: cddbd v1.5.1PL2 Copyright (c) Steve Scherf et al.
# Submitted via: audiograbber 1.83.01
#
DISCID=a809200c
DTITLE=Kevin Spencer Family - Picture This
DYEAR=1993
DGENRE=Southern Gospel
TTITLE0=Picture This
TTITLE1=Lord Lead Me On
TTITLE2=50 Miles Of Elbow Room
TTITLE3=Fallen Leaves
TTITLE4=Out Loud
TTITLE5=I Got Ahold Of God Today
TTITLE6=Tender Mercy
TTITLE7=I'm Homesick To Go
TTITLE8=It Pays To Pray
TTITLE9=Someone To Guide Me
TTITLE10=I'll Not Be A Stranger
TTITLE11=I'm Bound For The Land Of Canaan
EXTD=
EXTT0=
EXTT1=
EXTT2=
EXTT3=
EXTT4=
EXTT5=
EXTT6=
EXTT7=
EXTT8=
EXTT9=
EXTT10=
EXTT11=
PLAYORDER=
